<svg width="512" height="512" viewBox="0 0 512 512" xmlns="http://www.w3.org/2000/svg">
  <defs>
    <!-- 科技感径向渐变背景 -->
    <radialGradient id="techGrad" cx="30%" cy="30%" r="80%" fx="30%" fy="30%">
      <stop offset="0%" stop-color="#0077be"/>
      <stop offset="100%" stop-color="#002244"/>
    </radialGradient>

    <!-- 对勾的线性渐变：明亮绿色过渡 -->
    <linearGradient id="checkGrad" x1="0%" y1="100%" x2="100%" y2="0%">
      <stop offset="0%" stop-color="#39FF14"/>
      <stop offset="100%" stop-color="#00D68F"/>
    </linearGradient>
  </defs>

  <!-- 渐变背景 -->
  <rect x="0" y="0" width="512" height="512" fill="url(#techGrad)"/>

  <!-- 白色齿轮组合 -->
  <g transform="translate(64,64) scale(0.7)">
    <path d="M32 64C14.3 64 0 78.3 0 96s14.3 32 32 32l86.7 0c12.3 28.3 40.5 48 73.3 48s61-19.7 73.3-48L480 128c17.7 0 32-14.3 32-32s-14.3-32-32-32L265.3 64C253 35.7 224.8 16 192 16s-61 19.7-73.3 48L32 64zm0 160c-17.7 0-32 14.3-32 32s14.3 32 32 32l246.7 0c12.3 28.3 40.5 48 73.3 48s61-19.7 73.3-48l54.7 0c17.7 0 32-14.3 32-32s-14.3-32-32-32l-54.7 0c-12.3-28.3-40.5-48-73.3-48s-61 19.7-73.3 48L32 224zm0 160c-17.7 0-32 14.3-32 32s14.3 32 32 32l54.7 0c12.3 28.3 40.5 48 73.3 48s61-19.7 73.3-48L480 448c17.7 0 32-14.3 32-32s-14.3-32-32-32l-246.7 0c-12.3-28.3-40.5-48-73.3-48s-61 19.7-73.3 48L32 384z" fill="white"/>
  </g>

  <!-- 右下角对勾（渐变绿色） -->
  <g transform="translate(350,350) scale(0.22)">
    <path d="M384 32c35.3 0 64 28.7 64 64l0 320c0 35.3-28.7 64-64 64L64 480c-35.3 0-64-28.7-64-64L0 96C0 60.7 28.7 32 64 32l320 0zM64 80c-8.8 0-16 7.2-16 16l0 320c0 8.8 7.2 16 16 16l320 0c8.8 0 16-7.2 16-16l0-320c0-8.8-7.2-16-16-16L64 80zm230.7 89.9c7.8-10.7 22.8-13.1 33.5-5.3 10.7 7.8 13.1 22.8 5.3 33.5L211.4 366.1c-4.1 5.7-10.5 9.3-17.5 9.8-7 .5-13.9-2-18.8-6.9l-55.9-55.9c-9.4-9.4-9.4-24.6 0-33.9s24.6-9.4 33.9 0l36 36 105.6-145.2z" fill="url(#checkGrad)"/>
  </g>
</svg>
